<svg width="28" height="32" viewBox="0 0 28 32" fill="none" xmlns="http://www.w3.org/2000/svg">
<path d="M24.5 10C25.4283 10 26.3185 9.47322 26.9749 8.53553C27.6313 7.59785 28 6.32608 28 5C28 3.67392 27.6313 2.40215 26.9749 1.46447C26.3185 0.526784 25.4283 0 24.5 0C23.5717 0 22.6815 0.526784 22.0251 1.46447C21.3687 2.40215 21 3.67392 21 5C21 6.32608 21.3687 7.59785 22.0251 8.53553C22.6815 9.47322 23.5717 10 24.5 10ZM2.44563 32H16.6731H19.9544H25.3269C26.8056 32 28 30.2875 28 28.1812C28 27.4812 27.8644 26.7938 27.6106 26.1938L21.8356 12.675C21.6562 12.2563 21.3412 12 21 12C20.6588 12 20.3438 12.2562 20.1644 12.6687L18.0556 17.6063L12.5475 5.0625C12.2587 4.4 11.7469 4 11.2 4C10.6531 4 10.1456 4.4 9.8525 5.0625L0.37625 26.65C0.13125 27.2062 0 27.85 0 28.5063C0 30.4375 1.09375 32 2.44563 32Z" fill="#A4C686"/>
</svg>
