<svg width="29" height="29" viewBox="0 0 29 29" fill="none" xmlns="http://www.w3.org/2000/svg">
<path d="M11.365 0.692383C9.24719 0.692383 7.53545 2.4045 7.53545 4.52278V4.82896C7.53545 5.57879 7.74161 6.30988 8.12269 6.95349L9.29716 8.9093C9.36588 9.02177 9.37213 9.10301 9.35964 9.17174C9.34714 9.24672 9.30966 9.32796 9.23469 9.39669C9.15973 9.46542 9.08476 9.50916 9.00979 9.52166C8.94732 9.53416 8.85986 9.52791 8.74741 9.45918L6.79203 8.28444C6.14857 7.89702 5.41765 7.69707 4.66798 7.69707H4.36811C2.25031 7.69082 0.538574 9.40294 0.538574 11.5212C0.538574 12.5335 0.944643 13.5083 1.65682 14.2269L1.73179 14.3018C1.9442 14.5143 1.9442 14.8642 1.73179 15.0767L1.65682 15.1517C0.944643 15.8702 0.538574 16.845 0.538574 17.8573C0.538574 19.9756 2.25031 21.6877 4.36811 21.6877H4.67423C5.42389 21.6877 6.15482 21.4815 6.79828 21.1003L8.75366 19.9256C8.86611 19.8569 8.94732 19.8506 9.01604 19.8631C9.09101 19.8756 9.17222 19.9131 9.24094 19.9881C9.30966 20.0631 9.35339 20.138 9.36588 20.213C9.37838 20.2755 9.37213 20.363 9.30341 20.4755L8.12894 22.4313C7.74161 23.0749 7.5417 23.806 7.5417 24.5558V24.862C7.5417 26.974 9.25343 28.6924 11.3712 28.6924C12.3833 28.6924 13.3579 28.2862 14.0763 27.5739L14.1512 27.4989C14.3637 27.2864 14.7135 27.2864 14.9259 27.4989L15.0009 27.5739C15.7193 28.2925 16.6939 28.6924 17.7059 28.6924C19.8175 28.6924 21.5354 26.9803 21.5354 24.862V24.5558C21.5354 23.806 21.3293 23.0749 20.9482 22.4313L19.7737 20.4755C19.705 20.363 19.6988 20.2818 19.7113 20.213C19.7238 20.138 19.7612 20.0568 19.8362 19.9881C19.9112 19.9193 19.9861 19.8756 20.0611 19.8631C20.1236 19.8506 20.211 19.8569 20.3235 19.9256L22.2789 21.1003C22.9223 21.4877 23.6533 21.6877 24.4029 21.6877H24.709C26.8206 21.6877 28.5386 19.9756 28.5386 17.8573C28.5386 16.845 28.1325 15.8702 27.4203 15.1517L27.3454 15.0767C27.133 14.8642 27.133 14.5143 27.3454 14.3018L27.4203 14.2269C28.1388 13.5083 28.5386 12.5335 28.5386 11.5212C28.5386 9.40919 26.8268 7.69082 24.709 7.69082H24.4029C23.6533 7.69082 22.9223 7.89702 22.2789 8.27819L20.3235 9.45293C20.211 9.52166 20.1298 9.52791 20.0611 9.51541C19.9861 9.50292 19.9049 9.46542 19.8362 9.39044C19.7675 9.31546 19.7238 9.24048 19.7113 9.16549C19.6988 9.10301 19.705 9.01552 19.7737 8.90305L20.9482 6.94724C21.3355 6.30363 21.5354 5.57254 21.5354 4.82271V4.52278C21.5292 2.4045 19.8175 0.692383 17.6997 0.692383C16.6876 0.692383 15.713 1.09854 14.9946 1.81088L14.9197 1.88587C14.7072 2.09832 14.3574 2.09832 14.145 1.88587L14.07 1.81088C13.3516 1.09854 12.377 0.692383 11.365 0.692383Z" fill="#A4C686"/>
</svg>
