<svg width="28" height="32" viewBox="0 0 28 32" fill="none" xmlns="http://www.w3.org/2000/svg">
<g clip-path="url(#clip0_2_2544)">
<path d="M14.7 0C13.5406 0 12.6 1.34375 12.6 3V8.75625L15.7237 16.1562C15.8331 16.0562 15.96 16 16.1 16H17.5C17.885 16 18.2 16.45 18.2 17V19C18.2 19.55 17.885 20 17.5 20H17.3468L20.5756 27.65C21.1181 28.9375 21.14 30.5438 20.6281 31.8563C20.6106 31.9062 20.5887 31.9562 20.5668 32H25.9C27.0593 32 28 30.6562 28 29V15C28 13.3438 27.0593 12 25.9 12H24.85V7.5C24.85 6.66875 24.3818 6 23.8 6C23.2181 6 22.75 6.66875 22.75 7.5V12H21V3C21 1.34375 20.0593 0 18.9 0H14.7ZM16.1 4H17.5C17.885 4 18.2 4.45 18.2 5V7C18.2 7.55 17.885 8 17.5 8H16.1C15.715 8 15.4 7.55 15.4 7V5C15.4 4.45 15.715 4 16.1 4ZM15.4 11C15.4 10.45 15.715 10 16.1 10H17.5C17.885 10 18.2 10.45 18.2 11V13C18.2 13.55 17.885 14 17.5 14H16.1C15.715 14 15.4 13.55 15.4 13V11ZM22.4 17C22.4 16.45 22.715 16 23.1 16H24.5C24.885 16 25.2 16.45 25.2 17V19C25.2 19.55 24.885 20 24.5 20H23.1C22.715 20 22.4 19.55 22.4 19V17ZM23.1 22H24.5C24.885 22 25.2 22.45 25.2 23V25C25.2 25.55 24.885 26 24.5 26H23.1C22.715 26 22.4 25.55 22.4 25V23C22.4 22.45 22.715 22 23.1 22ZM9.79997 11.8062L12.4162 18H9.75622L7.65622 22L6.57997 19.425L9.79997 11.8062ZM11.0862 9.04375C10.8106 8.39375 10.325 8 9.79997 8C9.27497 8 8.78935 8.39375 8.51372 9.04375L0.223098 28.6812C-0.0612772 29.3562 -0.0700272 30.2 0.192473 30.8875C0.454973 31.575 0.962473 32 1.50935 32H18.0906C18.6375 32 19.1406 31.575 19.4075 30.8875C19.6743 30.2 19.6612 29.3562 19.3768 28.6812L11.0862 9.04375Z" fill="#A4C686"/>
</g>
<defs>
<clipPath id="clip0_2_2544">
<rect width="28" height="32" fill="white"/>
</clipPath>
</defs>
</svg>
