<svg width="17" height="18" viewBox="0 0 17 18" fill="none" xmlns="http://www.w3.org/2000/svg">
<path d="M9.45648 4.83341H10.2898C10.5107 4.8337 10.7225 4.92159 10.8788 5.07781C11.035 5.23403 11.1229 5.44582 11.1231 5.66675V6.50008C11.1231 6.72109 11.2109 6.93305 11.3672 7.08933C11.5235 7.24562 11.7355 7.33341 11.9565 7.33341C12.1775 7.33341 12.3895 7.24562 12.5457 7.08933C12.702 6.93305 12.7898 6.72109 12.7898 6.50008V5.66675C12.7891 5.00393 12.5255 4.36846 12.0568 3.89978C11.5881 3.43109 10.9526 3.16747 10.2898 3.16675H9.45648C9.23547 3.16675 9.02351 3.25454 8.86723 3.41082C8.71095 3.5671 8.62315 3.77907 8.62315 4.00008C8.62315 4.22109 8.71095 4.43305 8.86723 4.58933C9.02351 4.74562 9.23547 4.83341 9.45648 4.83341ZM6.12315 12.3334H5.28982C5.06889 12.3331 4.8571 12.2452 4.70088 12.089C4.54466 11.9328 4.45677 11.721 4.45648 11.5001V10.6667C4.45648 10.4457 4.36869 10.2338 4.21241 10.0775C4.05613 9.92121 3.84416 9.83341 3.62315 9.83341C3.40214 9.83341 3.19017 9.92121 3.03389 10.0775C2.87761 10.2338 2.78982 10.4457 2.78982 10.6667V11.5001C2.79054 12.1629 3.05416 12.7984 3.52285 13.267C3.99153 13.7357 4.627 13.9994 5.28982 14.0001H6.12315C6.34416 14.0001 6.55613 13.9123 6.71241 13.756C6.86869 13.5997 6.95648 13.3878 6.95648 13.1667C6.95648 12.9457 6.86869 12.7338 6.71241 12.5775C6.55613 12.4212 6.34416 12.3334 6.12315 12.3334ZM15.2898 11.5001C15.5108 11.5001 15.7228 11.4123 15.8791 11.256C16.0354 11.0997 16.1231 10.8878 16.1231 10.6667C16.1231 10.4457 16.0354 10.2338 15.8791 10.0775C15.7228 9.92121 15.5108 9.83341 15.2898 9.83341H12.7898V9.41675C12.7898 9.19573 12.702 8.98377 12.5457 8.82749C12.3895 8.67121 12.1775 8.58341 11.9565 8.58341C11.7355 8.58341 11.5235 8.67121 11.3672 8.82749C11.2109 8.98377 11.1231 9.19573 11.1231 9.41675V9.83341H8.62315C8.40214 9.83341 8.19017 9.92121 8.03389 10.0775C7.87761 10.2338 7.78982 10.4457 7.78982 10.6667C7.78982 10.8878 7.87761 11.0997 8.03389 11.256C8.19017 11.4123 8.40214 11.5001 8.62315 11.5001H12.9434C12.7549 12.266 12.4068 12.9834 11.9221 13.6056C11.7237 13.3485 11.5483 13.0745 11.3978 12.7867C11.3479 12.6893 11.2793 12.6028 11.1959 12.5319C11.1126 12.4611 11.0161 12.4073 10.9119 12.3738C10.8078 12.3402 10.6981 12.3275 10.589 12.3364C10.48 12.3452 10.3738 12.3755 10.2764 12.4254C10.179 12.4753 10.0925 12.5439 10.0216 12.6272C9.95077 12.7106 9.89703 12.8071 9.86348 12.9112C9.79572 13.1216 9.81427 13.3502 9.91507 13.5468C10.1395 13.9805 10.4073 14.3904 10.7143 14.7701C10.1097 15.2091 9.4222 15.5207 8.69352 15.6859C8.47798 15.7335 8.2901 15.8646 8.17111 16.0505C8.05212 16.2364 8.01174 16.4619 8.05884 16.6776C8.10593 16.8932 8.23665 17.0814 8.42231 17.2007C8.60797 17.3201 8.83341 17.361 9.04915 17.3143C10.0947 17.0831 11.0755 16.6214 11.92 15.963C12.7715 16.6218 13.7588 17.0832 14.8105 17.3139C14.9173 17.3375 15.0278 17.3398 15.1355 17.3206C15.2433 17.3015 15.3462 17.2614 15.4385 17.2024C15.5307 17.1435 15.6104 17.067 15.6731 16.9773C15.7358 16.8876 15.7801 16.7864 15.8037 16.6796C15.8273 16.5727 15.8295 16.4622 15.8104 16.3545C15.7913 16.2467 15.7511 16.1438 15.6922 16.0516C15.6333 15.9593 15.5568 15.8796 15.4671 15.8169C15.3774 15.7543 15.2762 15.7099 15.1693 15.6863C14.4358 15.5232 13.7426 15.2143 13.1309 14.7779C13.9015 13.8294 14.4209 12.7021 14.6412 11.5001H15.2898ZM5.31462 8.36898C5.3688 8.58282 5.50555 8.76646 5.6949 8.87964C5.88424 8.99283 6.11074 9.02633 6.32475 8.9728C6.53875 8.91927 6.72281 8.78308 6.83657 8.59408C6.95033 8.40508 6.98452 8.17868 6.93164 7.96451L5.4672 2.10636C5.36434 1.69515 5.12698 1.33011 4.79286 1.06927C4.45873 0.808428 4.04701 0.666748 3.62312 0.666748C3.19924 0.666748 2.78752 0.808428 2.45339 1.06927C2.11927 1.33011 1.88191 1.69515 1.77905 2.10636L0.314616 7.96451C0.26174 8.17868 0.295929 8.40508 0.40969 8.59408C0.523452 8.78308 0.707506 8.91927 0.921511 8.9728C1.13552 9.02633 1.36201 8.99283 1.55136 8.87964C1.74071 8.76646 1.87746 8.58282 1.93164 8.36898L2.39882 6.50008H4.84744L5.31462 8.36898ZM2.81548 4.83341L3.39607 2.51082C3.41352 2.46471 3.44458 2.42501 3.48514 2.39698C3.5257 2.36896 3.57383 2.35395 3.62312 2.35395C3.67242 2.35395 3.72055 2.36896 3.76111 2.39698C3.80167 2.42501 3.83273 2.46471 3.85017 2.51082L4.43077 4.83341H2.81548Z" fill="#A4C686" stroke="#A4C686" stroke-width="0.000675"/>
</svg>
