<svg width="24" height="24" viewBox="0 0 24 24" fill="none" xmlns="http://www.w3.org/2000/svg">
<path d="M13.685 7.83341H14.5183C14.7392 7.8337 14.951 7.92159 15.1072 8.07781C15.2635 8.23403 15.3513 8.44582 15.3516 8.66675V9.50008C15.3516 9.72109 15.4394 9.93305 15.5957 10.0893C15.752 10.2456 15.9639 10.3334 16.185 10.3334C16.406 10.3334 16.6179 10.2456 16.7742 10.0893C16.9305 9.93305 17.0183 9.72109 17.0183 9.50008V8.66675C17.0176 8.00393 16.7539 7.36846 16.2853 6.89978C15.8166 6.43109 15.1811 6.16747 14.5183 6.16675H13.685C13.464 6.16675 13.252 6.25454 13.0957 6.41082C12.9394 6.5671 12.8516 6.77907 12.8516 7.00008C12.8516 7.22109 12.9394 7.43305 13.0957 7.58934C13.252 7.74562 13.464 7.83341 13.685 7.83341ZM10.3516 15.3334H9.5183C9.29737 15.3331 9.08558 15.2452 8.92936 15.089C8.77314 14.9328 8.68525 14.721 8.68496 14.5001V13.6667C8.68496 13.4457 8.59717 13.2338 8.44089 13.0775C8.28461 12.9212 8.07264 12.8334 7.85163 12.8334C7.63062 12.8334 7.41866 12.9212 7.26238 13.0775C7.1061 13.2338 7.0183 13.4457 7.0183 13.6667V14.5001C7.01902 15.1629 7.28265 15.7984 7.75133 16.267C8.22001 16.7357 8.85548 16.9994 9.5183 17.0001H10.3516C10.5726 17.0001 10.7846 16.9123 10.9409 16.756C11.0972 16.5997 11.185 16.3878 11.185 16.1667C11.185 15.9457 11.0972 15.7338 10.9409 15.5775C10.7846 15.4212 10.5726 15.3334 10.3516 15.3334ZM19.5183 14.5001C19.7393 14.5001 19.9513 14.4123 20.1076 14.256C20.2638 14.0997 20.3516 13.8878 20.3516 13.6667C20.3516 13.4457 20.2638 13.2338 20.1076 13.0775C19.9513 12.9212 19.7393 12.8334 19.5183 12.8334H17.0183V12.4167C17.0183 12.1957 16.9305 11.9838 16.7742 11.8275C16.6179 11.6712 16.406 11.5834 16.185 11.5834C15.9639 11.5834 15.752 11.6712 15.5957 11.8275C15.4394 11.9838 15.3516 12.1957 15.3516 12.4167V12.8334H12.8516C12.6306 12.8334 12.4187 12.9212 12.2624 13.0775C12.1061 13.2338 12.0183 13.4457 12.0183 13.6667C12.0183 13.8878 12.1061 14.0997 12.2624 14.256C12.4187 14.4123 12.6306 14.5001 12.8516 14.5001H17.1719C16.9833 15.266 16.6353 15.9834 16.1506 16.6056C15.9522 16.3485 15.7768 16.0745 15.6263 15.7867C15.5764 15.6893 15.5078 15.6028 15.4244 15.5319C15.3411 15.4611 15.2445 15.4073 15.1404 15.3738C15.0363 15.3402 14.9266 15.3275 14.8175 15.3364C14.7085 15.3452 14.6022 15.3755 14.5049 15.4254C14.4075 15.4753 14.3209 15.5439 14.2501 15.6272C14.1792 15.7106 14.1255 15.8071 14.092 15.9112C14.0242 16.1216 14.0428 16.3502 14.1435 16.5468C14.368 16.9805 14.6358 17.3904 14.9428 17.7701C14.3382 18.2091 13.6507 18.5207 12.922 18.6859C12.7065 18.7335 12.5186 18.8646 12.3996 19.0505C12.2806 19.2364 12.2402 19.4619 12.2873 19.6776C12.3344 19.8932 12.4651 20.0814 12.6508 20.2007C12.8365 20.3201 13.0619 20.361 13.2776 20.3143C14.3232 20.0831 15.304 19.6214 16.1485 18.963C17 19.6218 17.9873 20.0832 19.0389 20.3139C19.1458 20.3375 19.2563 20.3398 19.364 20.3206C19.4718 20.3015 19.5747 20.2614 19.6669 20.2025C19.7592 20.1435 19.8389 20.067 19.9016 19.9773C19.9642 19.8876 20.0086 19.7864 20.0322 19.6796C20.0557 19.5727 20.058 19.4622 20.0389 19.3545C20.0198 19.2467 19.9796 19.1438 19.9207 19.0516C19.8618 18.9593 19.7853 18.8796 19.6956 18.8169C19.6059 18.7543 19.5047 18.7099 19.3978 18.6863C18.6643 18.5232 17.9711 18.2143 17.3594 17.7779C18.13 16.8294 18.6494 15.7021 18.8697 14.5001H19.5183ZM9.5431 11.369C9.59728 11.5828 9.73403 11.7665 9.92338 11.8796C10.1127 11.9928 10.3392 12.0263 10.5532 11.9728C10.7672 11.9193 10.9513 11.7831 11.065 11.5941C11.1788 11.4051 11.213 11.1787 11.1601 10.9645L9.69568 5.10636C9.59282 4.69515 9.35546 4.33011 9.02134 4.06927C8.68721 3.80843 8.27549 3.66675 7.85161 3.66675C7.42772 3.66675 7.016 3.80843 6.68187 4.06927C6.34775 4.33011 6.11039 4.69515 6.00753 5.10636L4.5431 10.9645C4.49022 11.1787 4.52441 11.4051 4.63817 11.5941C4.75193 11.7831 4.93599 11.9193 5.14999 11.9728C5.364 12.0263 5.5905 11.9928 5.77984 11.8796C5.96919 11.7665 6.10594 11.5828 6.16012 11.369L6.6273 9.50008H9.07592L9.5431 11.369ZM7.04396 7.83341L7.62456 5.51082C7.642 5.46471 7.67306 5.42501 7.71362 5.39698C7.75418 5.36896 7.80231 5.35395 7.85161 5.35395C7.9009 5.35395 7.94903 5.36896 7.98959 5.39698C8.03015 5.42501 8.06122 5.46471 8.07866 5.51082L8.65926 7.83341H7.04396Z" fill="#F7F6F4" stroke="#F7F6F4" stroke-width="0.000675"/>
</svg>
