<svg width="2060" height="1368" viewBox="0 0 2060 1368" fill="none" xmlns="http://www.w3.org/2000/svg">
<g clip-path="url(#clip0_67_27)">
<path d="M1043.58 384.491C1025.21 354.109 1003.45 321.671 969.359 311.75C929.885 300.262 889.335 323.084 854.94 345.605C752.077 412.957 653.018 485.949 558.217 564.244L558.321 565.423C632.127 560.333 705.934 555.243 779.74 550.153C833.065 546.475 888.222 542.29 935.346 517.062C953.228 507.489 970.66 494.701 990.923 493.81C1016.1 492.703 1038.05 510.287 1055.3 528.658C1157.34 637.33 1186.87 803.514 1301.36 898.991C1229.17 720.944 1142.97 548.905 1043.58 384.491Z" fill="#1A1934" fill-opacity="0.49"/>
<path d="M1670.83 1306.22C1659.54 1291.97 1654.93 1288.63 1643.8 1274.25C1553.17 1157.02 1467.98 1035.83 1388.24 910.683C1334.07 825.686 1282.59 739.057 1233.8 650.796C1210.57 608.835 1187.98 566.546 1166.03 523.926C1148.99 490.881 1132.33 457.637 1116.05 424.196C1111.4 414.645 1106.88 405.049 1102.38 395.432C1091.77 372.816 1081.36 350.09 1070.19 327.782C1057.46 302.355 1041.95 275.699 1018.57 258.616C1007.93 250.523 995.205 245.626 981.883 244.497C962.848 243.268 945.284 251.129 928.773 259.714C807.974 322.709 694.881 401.69 592.59 491.561C490.037 581.635 398.372 683.396 319.462 794.77C317.048 798.217 311.339 794.924 313.776 791.455C323.371 777.885 333.156 764.462 343.131 751.185C467.164 586.211 619.247 444.342 792.429 332.063C821.565 313.18 851.249 295.182 881.481 278.07C896.718 269.441 912.021 260.921 927.587 252.929C942.847 245.09 959.05 238.042 976.483 237.778C1035.81 236.856 1066.52 304.046 1087.62 349.256C1094.25 363.484 1100.96 377.669 1107.75 391.809C1133.42 445.495 1160.07 498.69 1187.72 551.395C1204.78 583.936 1222.21 616.286 1240.02 648.446C1295.43 748.594 1354.33 846.714 1416.71 942.806C1499.36 1070.09 1581.34 1182.54 1675.48 1301.57C1678.07 1304.86 1673.44 1309.56 1670.83 1306.22Z" fill="#1A1934"/>
<path d="M586.727 458.384C583.281 454.541 579.855 450.699 576.386 446.856C549.03 416.599 519.676 386.693 482.109 369.347C464.197 360.815 444.644 356.282 424.805 356.063C404.299 356.129 384.254 361.508 365.306 369.04C356.348 372.619 347.587 376.681 338.96 381.006C329.101 385.969 319.418 391.26 309.781 396.596C291.689 406.609 273.832 417.06 256.209 427.951C221.146 449.623 187.18 472.949 154.313 497.929C137.275 510.884 120.589 524.263 104.254 538.067C89.0607 550.89 74.1749 564.057 59.5965 577.568C56.479 580.445 51.8241 575.79 54.9416 572.913C58.7839 569.334 62.6701 565.777 66.5563 562.264C77.534 552.339 88.6876 542.605 100.017 533.061C120.676 515.627 141.871 498.866 163.6 482.779C197.39 457.747 232.343 434.414 268.46 412.779C286.508 401.976 304.804 391.626 323.348 381.731C328.948 378.745 334.612 375.824 340.343 373.058C353.345 366.499 366.854 360.999 380.741 356.612C400.411 350.248 421.223 348.203 441.755 350.617C461.58 353.501 480.681 360.11 498.05 370.094C534.934 390.712 563.542 422.593 591.382 453.707C594.193 456.869 589.56 461.546 586.727 458.384Z" fill="#1A1934"/>
<path d="M1342.49 771.929L1430.88 739.599L1474.76 723.547C1489.05 718.319 1503.31 712.368 1518.08 708.624C1530.92 704.956 1544.56 705.13 1557.3 709.124C1568.66 713.33 1579.06 719.778 1587.88 728.086C1596.9 736.385 1605.28 745.341 1612.97 754.879C1622.53 766.362 1631.94 777.966 1641.39 789.53C1680.42 837.26 1719.19 885.196 1757.7 933.34C1796.22 981.483 1834.47 1029.83 1872.47 1078.38C1910.56 1127.05 1948.39 1175.93 1985.96 1225C1990.56 1231.02 1995.16 1237.03 1999.75 1243.05C2002.29 1246.37 2008.01 1243.1 2005.44 1239.73C1967.59 1190.15 1929.49 1140.79 1891.11 1091.62C1852.65 1042.34 1813.92 993.264 1774.92 944.399C1735.92 895.535 1696.66 846.883 1657.14 798.443C1647.29 786.375 1637.43 774.321 1627.55 762.279C1619.21 752.122 1610.97 741.855 1601.83 732.401C1585.06 715.048 1564.1 699.712 1539 699.296C1524.25 699.051 1509.97 703.733 1496.27 708.692C1481.49 714.038 1466.75 719.484 1451.99 724.882L1362.99 757.438L1340.74 765.577C1336.79 767.022 1338.5 773.39 1342.49 771.929Z" fill="#1A1934"/>
<path d="M470.478 407.42C425.562 384.333 368.041 388.855 326.767 417.698C405.495 431.282 483.361 449.457 559.968 472.13C528.156 453.486 503.272 424.276 470.478 407.42Z" fill="#1A1934" fill-opacity="0.49"/>
<path d="M326.325 417.618L317.678 424.647C320.603 422.187 323.643 419.88 326.767 417.698C326.619 417.672 326.472 417.644 326.325 417.618Z" fill="#F2F2F2"/>
<path d="M1584.56 772.252C1575.86 761.66 1566.45 750.57 1553.44 746.268L1541.29 746.748C1633.77 910.192 1758.69 1053.01 1908.36 1166.43C1800.42 1035.04 1692.49 903.645 1584.56 772.252Z" fill="#1A1934" fill-opacity="0.49"/>
<path d="M829.022 684.878C834.645 705.307 847.312 723.089 864.782 735.078C871.536 739.677 879.528 744.089 881.838 751.927C883.054 756.924 882.305 762.196 879.746 766.657C877.192 771.06 874.084 775.118 870.498 778.732L870.171 779.958C853.41 770.025 837.464 757.459 828.205 740.315C818.947 723.171 817.654 700.702 829.022 684.878Z" fill="#F2F2F2"/>
<path d="M1387.05 1171.1C1392.68 1191.53 1405.34 1209.31 1422.81 1221.3C1429.57 1225.9 1437.56 1230.31 1439.87 1238.15C1441.08 1243.14 1440.34 1248.42 1437.78 1252.88C1435.22 1257.28 1432.11 1261.34 1428.53 1264.95L1428.2 1266.18C1411.44 1256.25 1395.49 1243.68 1386.24 1226.54C1376.98 1209.39 1375.68 1186.92 1387.05 1171.1Z" fill="#8A8996"/>
<path d="M273.386 1137.57C279.009 1158 291.676 1175.78 309.146 1187.77C315.9 1192.36 323.891 1196.78 326.202 1204.62C327.418 1209.61 326.669 1214.88 324.11 1219.35C321.556 1223.75 318.448 1227.81 314.862 1231.42L314.535 1232.65C297.774 1222.71 281.828 1210.15 272.569 1193C263.311 1175.86 262.018 1153.39 273.386 1137.57Z" fill="#8A8996"/>
<path d="M1554.94 244.308C1622.4 244.308 1677.08 189.618 1677.08 122.154C1677.08 54.6902 1622.4 0 1554.94 0C1487.48 0 1432.8 54.6902 1432.8 122.154C1432.8 189.618 1487.48 244.308 1554.94 244.308Z" fill="#A4C686"/>
<path d="M1775.36 28.4316C1716.17 20.4295 1648.58 52.4281 1633.24 110.163C1629.37 99.8981 1622.35 91.1278 1613.17 85.1196C1603.99 79.1113 1593.14 76.1763 1582.19 76.7385C1571.23 77.3006 1560.74 81.3309 1552.23 88.247C1543.71 95.1631 1537.62 104.607 1534.82 115.214L1541.6 120.068C1668.46 147.503 1799.77 146.91 1926.38 118.329C1885.2 75.0504 1834.56 36.4336 1775.36 28.4316Z" fill="#FFDF5D"/>
<path d="M1521.49 191.304C1462.3 183.302 1394.72 215.3 1379.37 273.036C1375.51 262.77 1368.48 254 1359.3 247.992C1350.12 241.983 1339.27 239.048 1328.32 239.611C1317.37 240.173 1306.87 244.203 1298.36 251.119C1289.85 258.035 1283.75 267.479 1280.96 278.086L1287.73 282.94C1414.59 310.375 1545.9 309.782 1672.51 281.201C1631.33 237.922 1580.69 199.306 1521.49 191.304Z" fill="#FFDF5D"/>
<path d="M2038.16 222.1C2037.91 222.101 2037.67 222.063 2037.43 221.988C1404.18 21.708 846.064 47.8981 489.366 105.137C440.823 112.923 392.15 121.917 344.7 131.87C332.586 134.407 320.018 137.128 307.346 139.96C292.212 143.331 277.28 146.802 262.962 150.273C256.778 151.737 250.715 153.213 244.772 154.701C235.771 156.923 226.638 159.239 216.848 161.784C205.908 164.604 194.792 167.563 183.803 170.578C183.763 170.593 183.722 170.604 183.68 170.613L183.682 170.616C171.269 174.005 158.922 177.493 146.983 180.975C140.52 182.842 134.28 184.683 128.303 186.5C127.636 186.685 127.044 186.863 126.444 187.045L125.16 187.436C124.416 187.663 123.682 187.885 122.947 188.095L122.901 188.109L122.902 188.112L120.958 188.715C118.64 189.417 116.379 190.103 114.155 190.786C55.3699 208.908 23.054 221.801 22.7347 221.927C22.4428 222.045 22.1307 222.103 21.8162 222.099C21.5017 222.096 21.191 222.03 20.9018 221.906C20.6126 221.783 20.3506 221.603 20.1308 221.378C19.9109 221.153 19.7375 220.887 19.6205 220.595C19.5035 220.303 19.4452 219.991 19.4488 219.677C19.4524 219.362 19.5179 219.052 19.6416 218.762C19.7653 218.473 19.9447 218.211 20.1696 217.991C20.3945 217.771 20.6606 217.598 20.9525 217.481C21.2741 217.355 53.7479 204.396 112.747 186.206C114.979 185.52 117.247 184.835 119.571 184.131L121.377 183.57C121.439 183.546 121.501 183.528 121.564 183.509C122.295 183.301 123.025 183.078 123.766 182.854L125.052 182.463C125.693 182.269 126.325 182.077 126.971 181.9C132.907 180.094 139.169 178.248 145.647 176.375C157.592 172.89 169.95 169.402 182.372 166.008C182.41 165.994 182.45 165.985 182.489 165.973C193.516 162.949 204.673 159.976 215.648 157.145C225.453 154.598 234.604 152.278 243.62 150.051C249.588 148.566 255.663 147.087 261.845 145.614C276.18 142.138 291.142 138.662 306.303 135.285C318.995 132.45 331.583 129.723 343.717 127.182C391.242 117.213 439.99 108.206 488.607 100.407C845.816 43.0868 1404.74 16.8544 2038.88 217.422C2039.42 217.594 2039.89 217.956 2040.19 218.442C2040.49 218.927 2040.61 219.505 2040.52 220.07C2040.44 220.635 2040.15 221.151 2039.72 221.523C2039.28 221.896 2038.73 222.1 2038.16 222.1Z" fill="#1A1934"/>
<path d="M629.854 1005.59C629.024 1003.17 627.628 1000.97 625.782 999.196C625.101 998.563 624.363 997.994 623.579 997.495C617.328 993.327 607.987 992.393 602.048 997.495C601.45 998.014 600.897 998.583 600.395 999.196C598.623 1001.38 596.803 1003.51 594.935 1005.59C591.869 1009.09 588.732 1012.46 585.451 1015.75C584.517 1016.66 583.583 1017.59 582.625 1018.5C582.074 1019.05 581.523 1019.58 580.972 1020.11C578.864 1022.12 576.709 1024.06 574.53 1025.97C573.38 1027 572.23 1028.01 571.057 1028.99C569.308 1030.45 567.56 1031.91 565.788 1033.33C565.62 1033.45 565.453 1033.57 565.285 1033.71C565.237 1033.73 565.213 1033.78 565.165 1033.81C565.141 1033.81 565.117 1033.81 565.093 1033.85C565.029 1033.88 564.971 1033.92 564.926 1033.97C564.399 1034.33 564.04 1034.57 563.776 1034.79C563.872 1034.74 563.968 1034.67 564.064 1034.62C563.632 1034.96 563.177 1035.29 562.746 1035.63C558.555 1038.72 554.268 1041.69 549.885 1044.46C539.042 1051.4 527.652 1057.45 515.829 1062.55C515.038 1062.86 514.224 1063.19 513.41 1063.51C482.453 1076.19 448.873 1081.14 415.575 1077.92C412.174 1077.66 408.773 1077.3 405.372 1076.85C401.444 1076.27 397.54 1075.58 393.66 1074.79C378.89 1071.84 364.437 1067.48 350.503 1061.76C333.072 1053.77 316.495 1044.05 301.022 1032.73C298.627 1031.03 296.209 1029.33 293.79 1027.67C296.544 1020.92 299.25 1014.17 301.885 1007.36C303.202 1004.08 304.471 1000.8 305.717 997.495C315.512 972.034 324.709 946.334 333.522 920.538C342.432 894.407 350.838 868.124 358.742 841.689C359.556 839.006 360.346 836.324 361.113 833.641C365.256 819.677 369.232 805.681 373.04 791.654C373.399 790.288 373.782 788.947 374.117 787.582C375.219 783.558 376.297 779.534 377.351 775.51C379.746 766.432 374.333 755.582 364.801 753.403C360.211 752.226 355.345 752.876 351.225 755.218C347.106 757.559 344.057 761.408 342.719 765.953C341.689 769.833 340.659 773.69 339.606 777.57C334.552 796.324 329.235 815.014 323.655 833.641C322.841 836.324 322.027 839.006 321.212 841.689C308.902 882.263 295.386 922.43 280.665 962.19C278.893 967.004 277.097 971.803 275.276 976.585C274.39 978.932 273.504 981.28 272.594 983.627C270.846 988.25 269.05 992.872 267.253 997.495C266.223 1000.2 265.17 1002.91 264.116 1005.59C263.421 1007.29 262.751 1008.99 262.08 1010.67C255.252 1008.22 248.177 1006.51 240.98 1005.59L239.831 1005.45C234.251 1004.78 228.609 1004.82 223.042 1005.59C214.71 1006.56 206.693 1009.35 199.558 1013.77C192.424 1018.18 186.345 1024.1 181.752 1031.12C170.328 1049.11 170.472 1074.84 186.494 1090.12C202.996 1105.85 227.976 1105.73 247.399 1095.89C257.692 1090.32 266.371 1082.18 272.594 1072.27C274.978 1068.68 277.169 1064.96 279.156 1061.13C279.659 1061.47 280.162 1061.81 280.665 1062.16C282.581 1063.51 284.497 1064.87 286.389 1066.21C297.413 1074.2 309.031 1081.33 321.14 1087.55C347.178 1100.5 375.207 1108.98 404.055 1112.63C404.701 1112.7 405.324 1112.8 405.971 1112.87C409.156 1113.28 412.365 1113.59 415.575 1113.85C461.611 1117.32 507.704 1107.9 548.688 1086.64C552.16 1084.85 555.601 1082.96 559.01 1080.99C564.303 1077.92 569.476 1074.67 574.53 1071.22C577.284 1069.35 579.966 1067.46 582.625 1065.47C594.242 1056.91 605.07 1047.33 614.981 1036.85C618.741 1032.9 622.341 1028.82 625.782 1024.61C629.036 1021.17 630.911 1016.65 631.051 1011.91C631.033 1009.75 630.627 1007.61 629.854 1005.59ZM233.268 1062.64C233.771 1062.28 234.274 1061.9 234.753 1061.52C234.61 1061.88 233.915 1062.28 233.268 1062.64ZM240.956 1054.91C240.405 1055.53 239.903 1056.15 239.352 1056.78C237.676 1058.65 235.876 1060.41 233.963 1062.04C233.7 1062.28 233.412 1062.52 233.125 1062.74C233.122 1062.74 233.118 1062.74 233.115 1062.74C233.113 1062.74 233.11 1062.74 233.108 1062.75C233.105 1062.75 233.104 1062.75 233.102 1062.75C233.101 1062.76 233.101 1062.76 233.101 1062.76C232.755 1062.92 232.419 1063.09 232.095 1063.29C231.065 1063.91 230.011 1064.49 228.934 1065.01C226.823 1065.79 224.653 1066.39 222.443 1066.81C220.745 1066.94 219.042 1066.95 217.342 1066.86H217.294C216.121 1066.6 214.962 1066.28 213.821 1065.9C213.246 1065.61 212.696 1065.28 212.145 1064.94C211.929 1064.75 211.737 1064.56 211.618 1064.44C211.384 1064.23 211.168 1063.99 210.971 1063.75C210.971 1063.74 210.971 1063.74 210.97 1063.74C210.968 1063.73 210.967 1063.73 210.964 1063.73C210.962 1063.73 210.959 1063.72 210.957 1063.72C210.954 1063.72 210.951 1063.72 210.947 1063.72C210.684 1063.24 210.396 1062.76 210.133 1062.28C210.119 1062.27 210.111 1062.25 210.109 1062.24C209.917 1061.64 209.75 1061.01 209.606 1060.39C209.554 1059.3 209.562 1058.2 209.63 1057.11C209.951 1055.58 210.384 1054.08 210.923 1052.61C211.408 1051.57 211.96 1050.56 212.576 1049.59C212.624 1049.49 212.863 1049.11 213.127 1048.68C213.151 1048.66 213.151 1048.66 213.151 1048.63C213.51 1048.22 213.869 1047.79 214.252 1047.41C214.899 1046.69 215.594 1046.07 216.288 1045.42C217.639 1044.54 219.038 1043.73 220.479 1043C222.766 1042.19 225.112 1041.56 227.497 1041.11C231.013 1040.83 234.548 1040.86 238.059 1041.21C241.384 1041.78 244.665 1042.59 247.878 1043.63C245.931 1047.41 243.714 1051.04 241.244 1054.5C241.148 1054.64 241.052 1054.79 240.956 1054.91ZM214.324 1047.03C214.113 1047.37 213.864 1047.68 213.582 1047.96C213.772 1047.61 214.023 1047.29 214.324 1047.03Z" fill="#A4C686"/>
<path d="M557.86 760.971C557.645 768.492 557.429 776.013 557.214 783.534C556.759 800.228 556.288 816.931 555.801 833.641C555.298 852.443 554.771 871.237 554.22 890.023C553.957 899.724 553.685 909.425 553.406 919.125C552.663 945.256 551.929 971.38 551.202 997.495C551.131 1000.2 551.035 1002.88 550.963 1005.59C550.604 1018.55 550.244 1031.51 549.885 1044.46C549.478 1058.52 549.079 1072.58 548.688 1086.64C548.4 1097.18 548.105 1107.73 547.801 1118.28C545.646 1194.76 543.491 1271.24 541.335 1347.72C541.244 1352.45 539.322 1356.97 535.973 1360.32C532.624 1363.67 528.108 1365.59 523.373 1365.68C518.621 1365.64 514.074 1363.74 510.714 1360.38C507.353 1357.02 505.449 1352.47 505.41 1347.72C506.608 1304.7 507.821 1261.68 509.051 1218.67C510.128 1179.77 511.222 1140.87 512.332 1101.97C512.691 1089.16 513.05 1076.34 513.41 1063.51C513.96 1044.2 514.503 1024.9 515.038 1005.59C515.11 1002.88 515.206 1000.2 515.278 997.495C515.326 995.124 515.397 992.777 515.469 990.405C516.523 952.921 517.577 915.428 518.631 877.928C519.062 863.174 519.477 848.411 519.876 833.641C520.355 816.803 520.834 799.973 521.313 783.151C521.529 775.75 521.72 768.372 521.936 760.971C522.027 756.236 523.948 751.719 527.298 748.37C530.647 745.02 535.163 743.099 539.898 743.008C544.65 743.046 549.197 744.951 552.557 748.311C555.917 751.672 557.822 756.219 557.86 760.971Z" fill="#A4C686"/>
<path d="M1543.22 765.956C1524.39 837.284 1501.88 907.589 1475.78 976.591C1468.58 995.624 1461.21 1014.62 1453.33 1033.39L1455.14 1029.09C1451.63 1038.03 1447.14 1046.56 1441.76 1054.51C1441.39 1055.02 1441.02 1055.53 1440.64 1056.04C1442.5 1053.66 1442.85 1053.19 1441.7 1054.62C1441.09 1055.34 1440.49 1056.07 1439.86 1056.77C1438.19 1058.65 1436.39 1060.41 1434.48 1062.05C1433.99 1062.46 1433.51 1062.86 1433.01 1063.25L1435.26 1061.51C1435 1062.12 1433.17 1062.94 1432.6 1063.29C1430.75 1064.4 1428.83 1065.38 1426.84 1066.21L1431.13 1064.4C1427.87 1065.71 1424.47 1066.64 1420.99 1067.18L1425.77 1066.53C1422.36 1067.01 1418.9 1067.04 1415.48 1066.64L1420.25 1067.29C1417.45 1066.9 1414.71 1066.16 1412.1 1065.09L1416.39 1066.9C1414.99 1066.29 1413.65 1065.57 1412.37 1064.75C1411.72 1064.33 1409.72 1062.82 1412.33 1064.81C1415.04 1066.89 1412.68 1064.99 1412.12 1064.44C1411.66 1063.98 1411.24 1063.48 1410.78 1063.01C1408.67 1060.85 1413.17 1066.74 1411.73 1064.21C1410.96 1062.94 1410.26 1061.63 1409.63 1060.29L1411.44 1064.58C1410.61 1062.54 1410.03 1060.41 1409.69 1058.23L1410.34 1063C1409.99 1060.3 1409.99 1057.56 1410.33 1054.85L1409.69 1059.62C1410.13 1056.6 1410.93 1053.64 1412.07 1050.81L1410.26 1055.1C1411.06 1053.2 1412 1051.36 1413.08 1049.6C1413.58 1048.69 1414.16 1047.83 1414.82 1047.03C1414.94 1047.07 1411.79 1050.65 1413.46 1048.84C1413.9 1048.37 1414.31 1047.87 1414.75 1047.4C1415.46 1046.65 1416.22 1045.96 1416.97 1045.25C1419.47 1042.87 1413.47 1047.56 1416.35 1045.68C1418.45 1044.3 1420.65 1043.1 1422.94 1042.09L1418.65 1043.9C1422.48 1042.32 1426.5 1041.25 1430.61 1040.69L1425.84 1041.33C1430.98 1040.74 1436.18 1040.8 1441.31 1041.51L1436.53 1040.87C1443.03 1041.86 1449.38 1043.64 1455.44 1046.19L1451.14 1044.38C1464.05 1049.92 1475.48 1058.15 1486.9 1066.22C1497.92 1074.2 1509.53 1081.33 1521.64 1087.55C1547.68 1100.5 1575.71 1108.98 1604.56 1112.64C1645.93 1117.71 1687.92 1112.3 1726.66 1096.92C1765.4 1081.54 1799.66 1056.68 1826.3 1024.61C1829.55 1021.16 1831.42 1016.64 1831.56 1011.91C1831.53 1007.15 1829.64 1002.59 1826.3 999.205C1819.71 993.155 1807.26 991.447 1800.9 999.205C1794.87 1006.57 1788.38 1013.55 1781.48 1020.11C1778.26 1023.16 1774.95 1026.13 1771.56 1028.99C1769.62 1030.63 1767.66 1032.24 1765.67 1033.81C1764.72 1034.56 1761.79 1036.54 1766.3 1033.34C1765.26 1034.07 1764.27 1034.87 1763.25 1035.62C1748.17 1046.74 1731.83 1056.04 1714.56 1063.32L1718.85 1061.51C1700.32 1069.29 1680.86 1074.62 1660.96 1077.38L1665.73 1076.73C1645.26 1079.43 1624.52 1079.4 1604.06 1076.64L1608.83 1077.28C1588.37 1074.47 1568.36 1069.02 1549.3 1061.07L1553.59 1062.88C1535.2 1054.74 1517.74 1044.63 1501.53 1032.72C1493.09 1026.47 1484.2 1020.87 1474.92 1015.97C1464.1 1010.45 1452.39 1006.89 1440.34 1005.46C1417.73 1002.8 1394.7 1011.6 1382.27 1031.13C1370.83 1049.11 1370.98 1074.83 1386.99 1090.12C1403.49 1105.86 1428.47 1105.73 1447.91 1095.88C1466.64 1086.39 1477.88 1066.69 1485.79 1048.11C1503.59 1006.31 1519.34 963.532 1534.02 920.54C1548.55 878.006 1561.72 835.042 1573.54 791.648C1575 786.273 1576.44 780.893 1577.86 775.507C1580.26 766.433 1574.85 755.58 1565.32 753.41C1560.73 752.228 1555.86 752.876 1551.74 755.217C1547.61 757.557 1544.56 761.408 1543.22 765.956Z" fill="#A4C686"/>
<path d="M1722.45 760.97L1715.98 990.411L1709.55 1218.66L1705.91 1347.72C1705.95 1352.47 1707.86 1357.02 1711.22 1360.38C1714.58 1363.74 1719.12 1365.64 1723.87 1365.68C1728.61 1365.59 1733.13 1363.67 1736.48 1360.32C1739.82 1356.97 1741.75 1352.45 1741.84 1347.72L1748.3 1118.28L1754.73 890.031L1758.37 760.97C1758.33 756.218 1756.43 751.673 1753.07 748.313C1749.71 744.952 1745.16 743.047 1740.41 743.006C1735.67 743.098 1731.16 745.02 1727.81 748.369C1724.46 751.718 1722.54 756.235 1722.45 760.97Z" fill="#A4C686"/>
<path opacity="0.2" d="M1100.71 1283.66H1106.29V1029.67H1236.41V1024.11H1106.29V916.936H1206.77C1205.3 915.062 1203.79 913.212 1202.23 911.386H1106.29V840.602C1104.45 839.815 1102.59 839.057 1100.71 838.342V911.386H991.378V820.693C989.504 820.778 987.659 820.907 985.8 821.065V911.387H898.574V843.72C896.701 844.55 894.856 845.422 893.025 846.338V911.386H819.701V916.936H893.025V1024.11H819.701V1029.67H893.025V1283.66H898.574V1029.67C910.03 1029.67 921.373 1031.92 931.957 1036.31C942.541 1040.69 952.157 1047.11 960.257 1055.22C968.357 1063.32 974.782 1072.93 979.165 1083.52C983.548 1094.1 985.802 1105.45 985.8 1116.9V1283.66H991.378V1029.67H1100.71V1283.66ZM898.574 1024.11V916.936H985.8V1024.11H898.574ZM991.378 1024.11V916.936H993.566C1007.64 916.937 1021.57 919.71 1034.57 925.096C1047.57 930.482 1059.38 938.377 1069.33 948.328C1079.28 958.28 1087.18 970.094 1092.56 983.096C1097.94 996.098 1100.71 1010.03 1100.71 1024.11H991.378Z" fill="#1A1934"/>
<path d="M1066.65 1207.5C1059.63 1238.83 1042.81 1267.1 1018.63 1288.22C1016.86 1289.75 1015.09 1291.24 1013.24 1292.7C1008.76 1293.11 1004.32 1293.52 999.903 1293.95C996.238 1294.28 992.622 1294.64 989.029 1294.98L988.383 1295.05L987.928 1291.12L986.107 1275.22C979.046 1263.69 974.67 1250.72 973.302 1237.27C971.933 1223.82 973.609 1210.23 978.204 1197.52C984.527 1180.46 995.975 1165.4 1007.23 1150.45C1022.77 1129.8 1037.89 1109.4 1038.44 1084.22C1046.09 1094.01 1052.44 1104.74 1057.36 1116.15C1052.72 1118.33 1048.56 1121.4 1045.1 1125.18C1044.11 1126.26 1043.13 1127.77 1043.8 1129.06C1044.38 1130.16 1045.81 1130.43 1047.06 1130.57C1050.05 1130.88 1053.07 1131.19 1056.06 1131.5C1058.46 1131.77 1060.85 1132.01 1063.25 1132.27C1066.15 1141.78 1068.11 1151.55 1069.12 1161.44C1070.73 1176.83 1069.9 1192.38 1066.65 1207.5Z" fill="#A4C686"/>
<path d="M1146.16 1144.73C1132.03 1155 1123.77 1169.78 1117.35 1186.07C1110.77 1188.17 1104.86 1191.95 1100.18 1197.04C1099.2 1198.11 1098.22 1199.62 1098.89 1200.92C1099.46 1202.02 1100.9 1202.28 1102.14 1202.43C1105.14 1202.74 1108.16 1203.05 1111.15 1203.36C1104.73 1222.62 1098.84 1242.55 1087.49 1258.81C1079.94 1269.55 1070.1 1278.47 1058.68 1284.94C1055.56 1286.71 1052.35 1288.31 1049.05 1289.71C1036.88 1290.64 1024.95 1291.64 1013.24 1292.7C1008.76 1293.11 1004.32 1293.52 999.902 1293.95C996.238 1294.28 992.622 1294.64 989.029 1294.98C989.005 1293.66 989.005 1292.34 989.029 1291.02C989.787 1255.93 1002.7 1222.19 1025.55 1195.55C1026.63 1194.31 1027.73 1193.09 1028.86 1191.86C1040.44 1179.49 1054.06 1169.2 1069.12 1161.44C1092.85 1149.1 1119.45 1143.33 1146.16 1144.73Z" fill="#57812D"/>
<path d="M1004.05 1281.66L1001.29 1289.8L999.903 1293.95C996.238 1294.28 992.622 1294.64 989.029 1294.98L988.383 1295.05C984.407 1295.45 980.455 1295.86 976.504 1296.27C975.474 1295.07 974.444 1293.85 973.438 1292.6C948.439 1262.33 936.44 1223.39 940.061 1184.3C943.683 1145.2 962.631 1109.13 992.765 1083.96C989.604 1100.51 993.292 1116.37 999.352 1132.1C998.705 1132.37 998.082 1132.63 997.484 1132.92C992.847 1135.1 988.682 1138.17 985.221 1141.95C984.239 1143.03 983.257 1144.53 983.928 1145.83C984.503 1146.93 985.94 1147.19 987.185 1147.34C990.179 1147.65 993.197 1147.96 996.19 1148.27C998.585 1148.53 1000.98 1148.77 1003.38 1149.04C1004.5 1149.16 1005.63 1149.28 1006.75 1149.4C1006.92 1149.76 1007.06 1150.09 1007.23 1150.45C1014.06 1165.25 1021.41 1180.13 1025.55 1195.55C1026.59 1199.42 1027.41 1203.35 1028 1207.31C1029.84 1220.71 1028.64 1234.35 1024.5 1247.22C1020.35 1260.09 1013.36 1271.86 1004.05 1281.66Z" fill="#57812D"/>
<path d="M1245.12 934.264C1224.5 894.044 1192.56 860.203 1154.99 835.334C1117.3 810.5 1074.06 795.377 1029.11 791.311C1023.21 790.776 1017.31 790.462 1011.38 790.37C1004.39 790.266 899.142 820.626 863.885 845.417C828.647 869.905 799.66 902.336 779.263 940.091C758.901 978.052 748.885 1020.7 750.222 1063.76C751.968 1107.08 764.041 1149.35 785.435 1187.06C806.537 1224.64 836.5 1256.5 872.718 1279.86C909.452 1303.3 946.352 1365.45 989.724 1367.65C1033.42 1369.86 1083.26 1311.23 1123.11 1293.43C1162.97 1275.48 1197.42 1247.39 1223.04 1211.98C1247.94 1177.27 1264.05 1137.04 1269.98 1094.74C1276.15 1051.43 1273.27 1006.76 1258.48 965.361C1254.69 954.724 1250.23 944.337 1245.12 934.264C1240.86 925.868 1228.37 922.777 1220.54 927.819C1216.52 930.301 1213.6 934.239 1212.4 938.817C1211.2 943.394 1211.81 948.258 1214.1 952.397C1216.6 957.328 1218.93 962.34 1221.08 967.433L1219.27 963.142C1227.41 982.723 1232.95 1003.29 1235.74 1024.31L1235.1 1019.53C1238.07 1042.34 1238.01 1065.44 1234.94 1088.23L1235.58 1083.46C1232.48 1106.25 1226.39 1128.54 1217.49 1149.74L1219.3 1145.45C1214.72 1156.27 1209.38 1166.76 1203.32 1176.83C1200.25 1181.91 1196.99 1186.88 1193.55 1191.73C1192.04 1193.85 1190.48 1195.94 1188.91 1198.03C1186.85 1200.75 1191.7 1194.48 1189.58 1197.14C1189.22 1197.6 1188.86 1198.05 1188.5 1198.51C1187.41 1199.87 1186.31 1201.22 1185.19 1202.55C1177.72 1211.46 1169.57 1219.77 1160.82 1227.42C1158.64 1229.32 1156.42 1231.19 1154.16 1233C1153.04 1233.91 1151.93 1234.85 1150.76 1235.7C1150.81 1235.67 1154.54 1232.83 1152.33 1234.47C1151.64 1234.99 1150.95 1235.52 1150.25 1236.04C1145.6 1239.48 1140.83 1242.74 1135.94 1245.84C1124.68 1252.93 1112.86 1259.11 1100.6 1264.31L1104.89 1262.5C1083.75 1271.4 1061.53 1277.48 1038.8 1280.59L1043.57 1279.95C1020.86 1283.02 997.831 1283.06 975.103 1280.07L979.878 1280.71C959.221 1277.93 939.016 1272.47 919.775 1264.46L924.066 1266.27C912.922 1261.56 902.176 1255.96 891.935 1249.52C886.866 1246.33 881.93 1242.94 877.125 1239.35C876.44 1238.84 875.76 1238.32 875.077 1237.81C872.885 1236.15 876.653 1239.03 876.683 1239.05C875.408 1238.13 874.181 1237.15 873.006 1236.11C870.686 1234.22 868.401 1232.29 866.153 1230.31C857.158 1222.39 848.759 1213.82 841.022 1204.66C839.086 1202.37 837.19 1200.05 835.337 1197.69C834.534 1196.67 833.07 1194.6 836.305 1198.96C835.879 1198.38 835.438 1197.82 835.008 1197.25C833.975 1195.88 832.957 1194.5 831.952 1193.11C828.435 1188.24 825.092 1183.26 821.923 1178.15C814.761 1166.59 808.511 1154.49 803.229 1141.96L805.039 1146.26C796.396 1125.69 790.486 1104.08 787.459 1081.98L788.101 1086.75C785.37 1066.38 785.331 1045.73 787.985 1025.35L787.343 1030.12C790.064 1010.39 795.374 991.09 803.137 972.738L801.327 977.03C806.211 965.541 811.972 954.446 818.559 943.842C821.857 938.535 825.352 933.358 829.043 928.31C829.882 927.163 830.73 926.023 831.588 924.89C832.364 923.865 834.498 921.313 830.857 925.82C831.213 925.378 831.557 924.923 831.909 924.478C833.935 921.911 836.01 919.384 838.135 916.897C846.177 907.482 854.888 898.66 864.2 890.5C866.554 888.438 868.944 886.419 871.372 884.443C872.475 883.545 873.586 882.657 874.704 881.777C875.151 881.426 875.604 881.081 876.049 880.727C871.265 884.534 874.719 881.763 875.805 880.949C880.809 877.2 885.947 873.638 891.218 870.264C902.936 862.769 915.263 856.273 928.069 850.844L923.778 852.655C942.363 844.85 1024.7 826.429 1039.68 828.44L1034.91 827.798C1056.92 830.872 1078.43 836.816 1098.9 845.48L1094.61 843.67C1104.98 848.074 1115.06 853.138 1124.79 858.829C1129.64 861.678 1134.41 864.682 1139.08 867.841C1141.29 869.337 1143.47 870.865 1145.63 872.428C1146.72 873.209 1147.79 873.998 1148.86 874.796C1149.45 875.239 1150.04 875.689 1150.63 876.133C1153.12 877.999 1147.21 873.431 1149.82 875.494C1158.55 882.355 1166.84 889.758 1174.65 897.657C1178.48 901.562 1182.18 905.59 1185.75 909.741C1187.58 911.872 1189.38 914.033 1191.13 916.226C1192 917.316 1194.98 921.259 1191.33 916.429C1192.22 917.609 1193.12 918.782 1194 919.971C1201.57 930.216 1208.29 941.061 1214.1 952.397C1218.4 960.775 1230.83 963.899 1238.68 958.842C1242.71 956.362 1245.63 952.423 1246.83 947.845C1248.03 943.267 1247.42 938.403 1245.12 934.264Z" fill="#A4C686"/>
<path d="M1035.82 1227.42C1033.97 1227.51 1032.13 1227.02 1030.56 1226.03C1029 1225.03 1027.77 1223.58 1027.05 1221.87C1026.34 1220.16 1026.17 1218.27 1026.56 1216.45C1026.96 1214.64 1027.9 1212.99 1029.26 1211.73C1029.49 1210.82 1029.65 1210.17 1029.88 1209.26C1029.8 1209.07 1029.72 1208.87 1029.64 1208.67C1021.3 1188.8 968.12 1244.2 965.821 1262.88C964.809 1271.14 965.236 1279.5 967.084 1287.61C949.857 1250.03 940.912 1209.19 940.855 1167.85C940.851 1157.48 941.427 1147.11 942.581 1136.8C943.534 1128.35 944.857 1119.96 946.549 1111.63C955.782 1066.42 975.605 1024.05 1004.39 987.995C1020.85 988.914 1035.28 986.406 1036.67 954.498C1036.92 948.822 1041.13 943.907 1042.06 938.316C1040.49 938.522 1038.89 938.651 1037.32 938.754C1036.83 938.779 1036.31 938.805 1035.82 938.831L1035.64 938.839C1033.91 938.917 1032.2 938.493 1030.71 937.62C1029.22 936.747 1028.01 935.46 1027.23 933.916C1026.45 932.372 1026.14 930.636 1026.32 928.917C1026.51 927.198 1027.18 925.569 1028.27 924.226C1028.95 923.391 1029.63 922.556 1030.31 921.722C1031.34 920.433 1032.4 919.171 1033.43 917.882C1033.55 917.76 1033.66 917.631 1033.76 917.496C1034.95 916.027 1036.13 914.584 1037.32 913.115C1035.16 909.757 1032.25 906.944 1028.82 904.896C1016.94 897.939 1000.55 902.757 991.973 913.502C983.367 924.247 981.744 939.321 984.733 952.745C987.672 964.168 992.533 975.008 999.11 984.8C998.465 985.624 997.795 986.423 997.151 987.248C985.377 1002.39 975.114 1018.65 966.511 1035.79C968.945 1016.78 939.18 948.111 927.67 933.566C913.843 916.095 885.491 923.72 883.056 945.867C883.032 946.081 883.009 946.295 882.986 946.51C884.696 947.474 886.37 948.498 888.007 949.581C890.065 950.956 891.658 952.92 892.58 955.216C893.502 957.512 893.709 960.033 893.174 962.448C892.639 964.864 891.387 967.062 889.581 968.753C887.776 970.445 885.502 971.552 883.057 971.929L882.806 971.968C859.92 1004.65 933.286 1089.7 951.65 1070.6C943.007 1095.1 937.585 1120.62 935.522 1146.51C934.353 1161.79 934.422 1177.14 935.728 1192.41L935.65 1191.86C931.57 1158.61 861.57 1109.18 841.129 1113.29C829.354 1115.67 817.755 1115.13 819.543 1127.01C819.572 1127.2 819.601 1127.39 819.63 1127.58C822.803 1128.87 825.892 1130.36 828.88 1132.03C830.59 1133 832.263 1134.02 833.901 1135.1C835.958 1136.48 837.552 1138.44 838.474 1140.74C839.396 1143.04 839.603 1145.56 839.068 1147.97C838.532 1150.39 837.28 1152.59 835.475 1154.28C833.669 1155.97 831.395 1157.08 828.95 1157.45L828.699 1157.49C828.519 1157.52 828.364 1157.54 828.184 1157.57C817.767 1193.42 895.022 1251.27 941.988 1232.86H942.014C946.669 1253.09 953.412 1272.78 962.137 1291.61H1034.02C1034.28 1290.81 1034.51 1289.99 1034.74 1289.19C1028.09 1289.6 1021.41 1289.21 1014.85 1288C1020.19 1281.46 1025.52 1274.86 1030.85 1268.32C1030.97 1268.19 1031.08 1268.06 1031.19 1267.93C1033.89 1264.58 1036.62 1261.26 1039.33 1257.91L1039.33 1257.9C1039.47 1247.63 1038.3 1237.39 1035.82 1227.42L1035.82 1227.42ZM953.505 1065.48L953.543 1065.43L953.505 1065.53V1065.48ZM937.583 1209.03L936.964 1207.63C936.99 1206.63 936.99 1205.62 936.964 1204.59C936.964 1204.31 936.913 1204.03 936.913 1203.74C937.145 1205.52 937.351 1207.3 937.608 1209.08L937.583 1209.03Z" fill="#A4C686"/>
<path d="M228.119 1077.83C242.669 1077.83 254.464 1066.03 254.464 1051.48C254.464 1036.93 242.669 1025.14 228.119 1025.14C213.569 1025.14 201.774 1036.93 201.774 1051.48C201.774 1066.03 213.569 1077.83 228.119 1077.83Z" fill="#FFDF5D"/>
<path d="M544.257 1365.25C558.807 1365.25 570.602 1353.45 570.602 1338.9C570.602 1324.35 558.807 1312.56 544.257 1312.56C529.707 1312.56 517.912 1324.35 517.912 1338.9C517.912 1353.45 529.707 1365.25 544.257 1365.25Z" fill="#A4C686"/>
<path d="M1744.14 1365.25C1758.69 1365.25 1770.49 1353.45 1770.49 1338.9C1770.49 1324.35 1758.69 1312.56 1744.14 1312.56C1729.59 1312.56 1717.8 1324.35 1717.8 1338.9C1717.8 1353.45 1729.59 1365.25 1744.14 1365.25Z" fill="#A4C686"/>
<path d="M1808.81 1029.93C1823.36 1029.93 1835.15 1018.13 1835.15 1003.58C1835.15 989.028 1823.36 977.232 1808.81 977.232C1794.26 977.232 1782.46 989.028 1782.46 1003.58C1782.46 1018.13 1794.26 1029.93 1808.81 1029.93Z" fill="#A4C686"/>
<path d="M1732.17 785.618C1746.72 785.618 1758.51 773.822 1758.51 759.271C1758.51 744.72 1746.72 732.924 1732.17 732.924C1717.62 732.924 1705.82 744.72 1705.82 759.271C1705.82 773.822 1717.62 785.618 1732.17 785.618Z" fill="#A4C686"/>
<path d="M632.871 1003.58C632.856 1010.31 630.253 1016.77 625.603 1021.64C620.953 1026.5 614.61 1029.39 607.888 1029.71C601.166 1030.03 594.579 1027.75 589.49 1023.35C584.402 1018.94 581.2 1012.75 580.549 1006.05C579.898 999.356 581.847 992.664 585.992 987.362C590.137 982.061 596.162 978.556 602.82 977.573C609.477 976.591 616.257 978.205 621.757 982.083C627.258 985.96 631.057 991.804 632.368 998.405C632.706 1000.11 632.875 1001.84 632.871 1003.58Z" fill="#A4C686"/>
<path d="M1159.77 862.263C1174.32 862.263 1186.11 850.467 1186.11 835.916C1186.11 821.365 1174.32 809.569 1159.77 809.569C1145.22 809.569 1133.42 821.365 1133.42 835.916C1133.42 850.467 1145.22 862.263 1159.77 862.263Z" fill="#A4C686"/>
<path d="M898.714 835.916C898.699 842.646 896.096 849.113 891.446 853.977C886.796 858.842 880.453 861.732 873.731 862.05C867.009 862.368 860.422 860.09 855.334 855.686C850.245 851.283 847.043 845.091 846.392 838.392C845.741 831.694 847.69 825.002 851.835 819.7C855.981 814.399 862.005 810.894 868.663 809.911C875.32 808.928 882.1 810.543 887.601 814.42C893.101 818.298 896.9 824.142 898.211 830.743C898.549 832.447 898.718 834.18 898.714 835.916Z" fill="#A4C686"/>
<path d="M558.627 759.271C558.611 766.001 556.009 772.467 551.358 777.332C546.708 782.196 540.366 785.087 533.644 785.405C526.922 785.723 520.335 783.444 515.246 779.041C510.157 774.637 506.956 768.445 506.305 761.747C505.653 755.049 507.602 748.356 511.748 743.055C515.893 737.753 521.918 734.248 528.575 733.266C535.232 732.283 542.013 733.897 547.513 737.775C553.013 741.652 556.812 747.496 558.124 754.097C558.462 755.801 558.63 757.534 558.627 759.271Z" fill="#A4C686"/>
<path d="M1435.19 1087.41C1449.74 1087.41 1461.54 1075.61 1461.54 1061.06C1461.54 1046.51 1449.74 1034.72 1435.19 1034.72C1420.64 1034.72 1408.85 1046.51 1408.85 1061.06C1408.85 1075.61 1420.64 1087.41 1435.19 1087.41Z" fill="#FFDF5D"/>
<path d="M1020.86 847.892C1042.02 847.892 1059.18 830.735 1059.18 809.569C1059.18 788.404 1042.02 771.247 1020.86 771.247C999.695 771.247 982.539 788.404 982.539 809.569C982.539 830.735 999.695 847.892 1020.86 847.892Z" fill="#A4C686"/>
<path d="M2057.15 1367.26L2.85164 1368C2.47716 1368 2.10633 1367.93 1.76035 1367.78C1.41437 1367.64 1.10003 1367.43 0.835225 1367.16C0.570424 1366.9 0.360347 1366.59 0.217038 1366.24C0.0737287 1365.89 0 1365.52 0 1365.15C0 1364.77 0.0737287 1364.4 0.217038 1364.06C0.360347 1363.71 0.570424 1363.4 0.835225 1363.13C1.10003 1362.87 1.41437 1362.66 1.76035 1362.51C2.10633 1362.37 2.47716 1362.3 2.85164 1362.3L2057.15 1361.56C2057.9 1361.56 2058.63 1361.86 2059.16 1362.4C2059.69 1362.93 2059.99 1363.66 2059.99 1364.41C2059.99 1365.17 2059.69 1365.89 2059.16 1366.43C2058.63 1366.96 2057.9 1367.26 2057.15 1367.26Z" fill="#FFDF5D"/>
</g>
<defs>
<clipPath id="clip0_67_27">
<rect width="2060" height="1368" fill="white"/>
</clipPath>
</defs>
</svg>
